<svg width="42" height="13" viewBox="0 0 42 13" fill="none" xmlns="http://www.w3.org/2000/svg">
<path fill-rule="evenodd" clip-rule="evenodd" d="M11.318 0.558594V0.563808C11.3128 0.563808 9.6774 0.558594 9.24131 2.12816C8.84156 3.56736 7.71498 7.54081 7.68383 7.65032H7.37233C7.37233 7.65032 6.21979 3.58822 5.81485 2.12294C5.37875 0.553379 3.7382 0.558594 3.7382 0.558594H0.000244141V12.4998H3.7382V5.40808H3.89395H4.0497L6.23018 12.4998H8.82598L11.0065 5.4133H11.318V12.4998H15.0559V0.558594H11.318Z" fill="#4DB45E"/>
<path fill-rule="evenodd" clip-rule="evenodd" d="M24.9716 0.558594C24.9716 0.558594 23.8762 0.657669 23.3622 1.81007L20.7145 7.65032H20.403V0.558594H16.6651V12.4998H20.1954C20.1954 12.4998 21.3427 12.3955 21.8567 11.2483L24.4525 5.40808H24.764V12.4998H28.5019V0.558594H24.9716Z" fill="#4DB45E"/>
<path fill-rule="evenodd" clip-rule="evenodd" d="M30.163 5.98145V12.4996H33.9009V8.69299H37.9504C39.7155 8.69299 41.2107 7.56144 41.7662 5.98145H30.163Z" fill="#4DB45E"/>
<path fill-rule="evenodd" clip-rule="evenodd" d="M37.9503 0.558594H29.6385C30.0539 2.83212 31.7515 4.65719 33.9476 5.25165C34.446 5.38722 34.9703 5.46023 35.5103 5.46023H41.9167C41.9738 5.18907 41.9998 4.9127 41.9998 4.62591C41.9998 2.37846 40.1879 0.558594 37.9503 0.558594Z" fill="url(#paint0_linear_307_1994)"/>
<defs>
<linearGradient id="paint0_linear_307_1994" x1="29.6396" y1="3.00941" x2="41.9998" y2="3.00941" gradientUnits="userSpaceOnUse">
<stop offset="0.3" stop-color="#00B4E6"/>
<stop offset="1" stop-color="#088CCB"/>
</linearGradient>
</defs>
</svg>
