<svg width="40" height="12" viewBox="0 0 40 12" fill="none" xmlns="http://www.w3.org/2000/svg">
    <path d="M17.3642 11.8188H14.1283L16.1523 0.218262H19.388L17.3642 11.8188Z" fill="#1585EC"/>
    <path d="M29.0945 0.502183C28.4563 0.267462 27.4439 0.00830078 26.1922 0.00830078C22.9967 0.00830078 20.7464 1.58787 20.7326 3.84618C20.706 5.51235 22.3437 6.43779 23.5686 6.99334C24.8205 7.56104 25.246 7.93157 25.246 8.43759C25.2333 9.21475 24.2344 9.57298 23.3028 9.57298C22.0109 9.57298 21.3186 9.38829 20.2667 8.95592L19.8406 8.77057L19.3878 11.3746C20.1467 11.6951 21.545 11.9796 22.9967 11.992C26.392 11.992 28.6024 10.4369 28.6286 8.03032C28.6415 6.70975 27.7768 5.69787 25.9124 4.87101C24.7807 4.34023 24.0876 3.98232 24.0876 3.43923C24.1008 2.94551 24.6738 2.43982 25.9514 2.43982C27.0033 2.41505 27.7763 2.64945 28.3618 2.884L28.6545 3.00719L29.0945 0.502183Z" fill="#1585EC"/>
    <path d="M33.3952 7.70916C33.6617 7.04272 34.6871 4.46342 34.6871 4.46342C34.6737 4.48818 34.9531 3.78468 35.1129 3.3528L35.339 4.35237C35.339 4.35237 35.9518 7.12917 36.0849 7.70916C35.5791 7.70916 34.0344 7.70916 33.3952 7.70916ZM37.3895 0.218262H34.8865C34.1147 0.218262 33.5283 0.427887 33.1953 1.18077L28.3888 11.8187H31.7841C31.7841 11.8187 32.3431 10.3869 32.4632 10.0785C32.8357 10.0785 36.1386 10.0785 36.6178 10.0785C36.7107 10.4858 37.0039 11.8187 37.0039 11.8187H40.0001L37.3895 0.218262Z" fill="#1585EC"/>
    <path d="M11.4249 0.218262L8.25594 8.12874L7.90965 6.5244C7.32377 4.67321 5.48632 2.66192 3.43582 1.66185L6.33851 11.8065H9.76037L14.8466 0.218262H11.4249Z" fill="#1585EC"/>
    <path d="M5.31369 0.218262H0.107461L0.0541992 0.452655C4.11538 1.41532 6.80502 3.7358 7.91008 6.52489L6.77831 1.1934C6.59198 0.452491 6.01937 0.242702 5.31369 0.218262Z" fill="#1585EC"/>
</svg>
