<svg width="16" height="18" viewBox="0 0 16 18" fill="none" xmlns="http://www.w3.org/2000/svg">
<path d="M14.7499 7.5C14.7499 12.75 7.99988 17.25 7.99988 17.25C7.99988 17.25 1.24988 12.75 1.24988 7.5C1.24988 5.70979 1.96104 3.9929 3.22691 2.72703C4.49278 1.46116 6.20967 0.75 7.99988 0.75C9.79009 0.75 11.507 1.46116 12.7728 2.72703C14.0387 3.9929 14.7499 5.70979 14.7499 7.5Z" stroke="#151E27" stroke-width="2" stroke-linecap="round" stroke-linejoin="round"/>
<path d="M7.99988 9.75C9.24252 9.75 10.2499 8.74264 10.2499 7.5C10.2499 6.25736 9.24252 5.25 7.99988 5.25C6.75724 5.25 5.74988 6.25736 5.74988 7.5C5.74988 8.74264 6.75724 9.75 7.99988 9.75Z" stroke="#151E27" stroke-width="2" stroke-linecap="round" stroke-linejoin="round"/>
</svg>
