<svg width="42" height="13" viewBox="0 0 42 13" fill="none" xmlns="http://www.w3.org/2000/svg">
    <path fill-rule="evenodd" clip-rule="evenodd" d="M11.318 0.558716V0.563931C11.3128 0.563931 9.6774 0.558716 9.24131 2.12828C8.84156 3.56748 7.71498 7.54093 7.68383 7.65044H7.37233C7.37233 7.65044 6.21979 3.58834 5.81485 2.12307C5.37875 0.553501 3.7382 0.558716 3.7382 0.558716H0.000244141V12.4999H3.7382V5.4082H3.89395H4.0497L6.23018 12.4999H8.82598L11.0065 5.41342H11.318V12.4999H15.0559V0.558716H11.318Z" fill="#4DB45E"/>
    <path fill-rule="evenodd" clip-rule="evenodd" d="M24.9716 0.558716C24.9716 0.558716 23.8762 0.657791 23.3622 1.8102L20.7145 7.65044H20.403V0.558716H16.6651V12.4999H20.1954C20.1954 12.4999 21.3427 12.3956 21.8567 11.2484L24.4525 5.4082H24.764V12.4999H28.5019V0.558716H24.9716Z" fill="#4DB45E"/>
    <path fill-rule="evenodd" clip-rule="evenodd" d="M30.163 5.98145V12.4996H33.9009V8.69299H37.9504C39.7155 8.69299 41.2107 7.56144 41.7662 5.98145H30.163Z" fill="#4DB45E"/>
    <path fill-rule="evenodd" clip-rule="evenodd" d="M37.9503 0.558716H29.6385C30.0539 2.83224 31.7515 4.65731 33.9476 5.25177C34.446 5.38734 34.9703 5.46035 35.5103 5.46035H41.9167C41.9738 5.18919 41.9998 4.91283 41.9998 4.62603C41.9998 2.37858 40.1879 0.558716 37.9503 0.558716Z" fill="url(#paint0_linear_213_1785)"/>
    <defs>
        <linearGradient id="paint0_linear_213_1785" x1="29.6396" y1="3.00953" x2="41.9998" y2="3.00953" gradientUnits="userSpaceOnUse">
            <stop offset="0.3" stop-color="#00B4E6"/>
            <stop offset="1" stop-color="#088CCB"/>
        </linearGradient>
    </defs>
</svg>
