<svg width="37" height="24" viewBox="0 0 37 24" fill="none" xmlns="http://www.w3.org/2000/svg">
    <path d="M23.8598 20.7578H14.1171V3.24854H23.8598V20.7578Z" fill="#FF5F00"/>
    <path d="M14.7416 12.002C14.7416 8.45013 16.4046 5.28627 18.9943 3.24734C17.1005 1.75638 14.7105 0.866479 12.113 0.866479C5.96362 0.866479 0.978882 5.85193 0.978882 12.002C0.978882 18.152 5.96362 23.1375 12.113 23.1375C14.7105 23.1375 17.1005 22.2475 18.9943 20.7566C16.4046 18.7177 14.7416 15.5538 14.7416 12.002Z" fill="#EB001B"/>
    <path d="M36.9995 12.002C36.9995 18.152 32.0147 23.1375 25.8654 23.1375C23.2679 23.1375 20.8778 22.2475 18.9833 20.7566C21.5738 18.7177 23.2368 15.5538 23.2368 12.002C23.2368 8.45013 21.5738 5.28627 18.9833 3.24734C20.8778 1.75638 23.2679 0.866479 25.8654 0.866479C32.0147 0.866479 36.9995 5.85193 36.9995 12.002Z" fill="#F79E1B"/>
</svg>
